<svg xmlns="http://www.w3.org/2000/svg" viewBox="0 0 64 64" id="united-states"><path fill="#e9edf5" d="m12 27-2 2 1 3-3-2-3 2 1-3-2-2h3l1-3 1 3h3zM23 27l-2 2 1 3-3-2-3 2 1-3-2-2h3l1-3 1 3h3zM34 27l-2 2 1 3-3-2-3 2 1-3-2-2h3l1-3 1 3h3zM17 17l-2 2 1 3-3-2-3 2 1-3-2-2h3l1-3 1 3h3zM28 17l-2 2 1 3-3-2-3 2 1-3-2-2h3l1-3 1 3h3zM34 7l-2 2 1 3-3-2-3 2 1-3-2-2h3l1-3 1 3h3zM23 7l-2 2 1 3-3-2-3 2 1-3-2-2h3l1-3 1 3h3zM12 7l-2 2 1 3-3-2-3 2 1-3-2-2h3l1-3 1 3h3zM1 54h62v5H1zM1 44h62v5H1zM63 35v4H1v-4h62zM37 25h26v5H37zM37 15h26v5H37zM37 5h26v5H37z"></path><path fill="#e21743" d="M1 59h62a4 4 0 0 1-4 4H5a4 4 0 0 1-4-4ZM1 49h62v5H1zM1 39h62v5H1zM37 30h26v5H37zM37 20h26v5H37zM37 10h26v5H37zM63 5H37V1h22a4 4 0 0 1 4 4Z"></path><path fill="#2a54c4" d="M19 1H5a4 4 0 0 0-4 4v30h36V1Zm-1 6 1-3 1 3h3l-2 2 1 3-3-2-3 2 1-3-2-2ZM7 7l1-3 1 3h3l-2 2 1 3-3-2-3 2 1-3-2-2Zm4 25-3-2-3 2 1-3-2-2h3l1-3 1 3h3l-2 2Zm-1-10 1-3-2-2h3l1-3 1 3h3l-2 2 1 3-3-2Zm12 10-3-2-3 2 1-3-2-2h3l1-3 1 3h3l-2 2Zm-1-10 1-3-2-2h3l1-3 1 3h3l-2 2 1 3-3-2Zm12 10-3-2-3 2 1-3-2-2h3l1-3 1 3h3l-2 2ZM32 9l1 3-3-2-3 2 1-3-2-2h3l1-3 1 3h3Z"></path><path fill="#dce1eb" d="M63 20v-3a22.161 22.161 0 0 1-.209 3Z"></path><path fill="#bec3d2" d="m5 32 1.2-.8q-.339-.4-.661-.82Z"></path><path fill="#dce1eb" d="M1 54h62v5H1zM1 44h62v5H1zM10.358 35H1v4h22a21.894 21.894 0 0 1-12.642-4zM41 39h22v-4h-9.358A21.894 21.894 0 0 1 41 39zm17.745-9H63v-5h-1.507a21.9 21.9 0 0 1-2.748 5z"></path><path fill="#b51135" d="M5 63h54a4 4 0 0 0 4-4H1a4 4 0 0 0 4 4ZM1 49h62v5H1zM23 39H1v5h62v-5H23zM53.642 35H63v-5h-4.255a22.118 22.118 0 0 1-5.103 5zm7.851-10H63v-5h-.209a21.8 21.8 0 0 1-1.298 5z"></path><path fill="#2448a8" d="M6.2 31.2 5 32l.54-1.621A21.9 21.9 0 0 1 1 17v18h9.358A22.134 22.134 0 0 1 6.2 31.2Z"></path><path fill="#ea5172" d="M59 1H37v4h22a4 4 0 0 1 4 4V5a4 4 0 0 0-4-4Z"></path><path fill="#4f7fff" d="M37 1H5a4 4 0 0 0-4 4v4a4 4 0 0 1 4-4h2.667L8 4l.333 1h10.334L19 4l.333 1h10.334L30 4l.333 1H37Z"></path><path fill="#f7faff" d="M29.667 5h.666L30 4l-.333 1zM18.667 5h.666L19 4l-.333 1zM7.667 5h.666L8 4l-.333 1z"></path><path fill="#9da3b5" d="M1 55v4h4a4 4 0 0 1-4-4zm58 4h4v-4a4 4 0 0 1-4 4z"></path><path fill="#750a26" d="M5 59H1a4 4 0 0 0 4 4h54a4 4 0 0 0 4-4H5Z"></path></svg>