<svg xmlns="http://www.w3.org/2000/svg" viewBox="0 0 64 64" id="spain"><g><path fill="#e21743" d="M63 5v16H1V5a4 4 0 0 1 4-4h54a4 4 0 0 1 4 4Z"></path><path fill="#ffd45d" d="M1 21h62v22H1z"></path><path fill="#e21743" d="M63 43v16a4 4 0 0 1-4 4H5a4 4 0 0 1-4-4V43Z"></path><path fill="#c7002b" d="M1 17v4h.37A22.058 22.058 0 0 1 1 17zm62 4v-4a22.058 22.058 0 0 1-.37 4z"></path><path fill="#ffb844" d="M41 39H23A22 22 0 0 1 1.37 21H1v22h62V21h-.37A22 22 0 0 1 41 39Z"></path><path fill="#c7002b" d="M1 59a4 4 0 0 0 4 4h54a4 4 0 0 0 4-4V43H1Z"></path><path fill="#b51135" d="M59 59H5a4 4 0 0 1-4-4v4a4 4 0 0 0 4 4h54a4 4 0 0 0 4-4v-4a4 4 0 0 1-4 4Z"></path><path fill="#ea5172" d="M59 1H5a4 4 0 0 0-4 4v4a4 4 0 0 1 4-4h54a4 4 0 0 1 4 4V5a4 4 0 0 0-4-4Z"></path><path fill="none" stroke="#000" stroke-linejoin="round" stroke-width="2" d="M24 29v11M8 29v11"></path><path fill="#e21743" d="M19 24a1.959 1.959 0 0 1 2 2 1.8 1.8 0 0 1-.988 1.744A1.935 1.935 0 0 0 19 29.482V30h-6v-.518a1.935 1.935 0 0 0-1.012-1.738A1.8 1.8 0 0 1 11 26a1.959 1.959 0 0 1 2-2Z"></path><path fill="#eef2fa" d="M21 30v5h-5v-5h5z"></path><path fill="#e21743" d="M16 35v5c-2.76 0-5-.69-5-4v-1zm5 0v1c0 3.31-2.24 4-5 4v-5zM16 30v5h-5v-5h5z"></path><path fill="#eef2fa" d="M23 29h2v11h-2zM7 29h2v11H7z"></path><path fill="#ffb844" d="M14 35v4.828a8.147 8.147 0 0 0 1 .136V35zm-2 0v3.863a3.28 3.28 0 0 0 1 .656V35zm1-5.518V30h6v-.518a2.1 2.1 0 0 1 .062-.482h-6.124a2.1 2.1 0 0 1 .062.482z"></path><path fill="#c7002b" d="M14 37.063a20.932 20.932 0 0 1-1-.484v2.94a6.26 6.26 0 0 0 2 .445 8.147 8.147 0 0 1-1-.136zm-1 2.456a3.28 3.28 0 0 1-1-.656V36.05c-.342-.2-.67-.418-1-.634V36c0 1.958.788 2.995 2 3.519zm3-1.677a22.795 22.795 0 0 1-1-.356v2.478c.323.025.658.036 1 .036 1.685 0 3.173-.261 4.079-1.214A21.884 21.884 0 0 1 16 37.842z"></path><path fill="#cdd2e1" d="M24 39h-1v1h2v-1h-1zM7 32.067V40h2v-6.042a21.716 21.716 0 0 1-1-.895q-.516-.482-1-.996Z"></path><path fill="#ffb844" d="M15 39.964z"></path><path fill="#d18f23" d="M14 37.063v2.765a8.147 8.147 0 0 0 1 .136v-2.478c-.338-.132-.67-.275-1-.423Z"></path><path fill="#ffb844" d="M13 39.519z"></path><path fill="#d18f23" d="M12 36.05v2.813a3.28 3.28 0 0 0 1 .656v-2.94c-.336-.172-.674-.34-1-.529Z"></path></g></svg>